<mxfile host="Electron" agent="Mozilla/5.0 (Windows NT 10.0; Win64; x64) AppleWebKit/537.36 (KHTML, like Gecko) draw.io/26.2.2 Chrome/134.0.6998.178 Electron/35.1.2 Safari/537.36" version="26.2.2">
  <diagram name="Página-1" id="2oMk17-hKPYDmYtU0YKl">
    <mxGraphModel dx="1188" dy="811" grid="1" gridSize="10" guides="1" tooltips="1" connect="1" arrows="1" fold="1" page="1" pageScale="1" pageWidth="1169" pageHeight="827" math="0" shadow="0">
      <root>
        <mxCell id="0" />
        <mxCell id="1" parent="0" />
        <mxCell id="YsobYWs1oGZnOzWhEl8R-1" value="usuario" style="shape=umlActor;verticalLabelPosition=bottom;verticalAlign=top;html=1;outlineConnect=0;" parent="1" vertex="1">
          <mxGeometry x="280" y="245" width="30" height="60" as="geometry" />
        </mxCell>
        <mxCell id="YsobYWs1oGZnOzWhEl8R-2" value="teclea información&lt;br&gt;y&lt;br&gt;clica sobre botón de &quot;hacer algo&quot;" style="rounded=0;whiteSpace=wrap;html=1;" parent="1" vertex="1">
          <mxGeometry x="410" y="165" width="120" height="60" as="geometry" />
        </mxCell>
        <mxCell id="YsobYWs1oGZnOzWhEl8R-4" value="realiza las operaciones necesarias para &quot;hacer algo&quot;" style="rounded=0;whiteSpace=wrap;html=1;" parent="1" vertex="1">
          <mxGeometry x="570" y="245" width="120" height="60" as="geometry" />
        </mxCell>
        <mxCell id="YsobYWs1oGZnOzWhEl8R-5" value="persistencia de datos" style="shape=cylinder3;whiteSpace=wrap;html=1;boundedLbl=1;backgroundOutline=1;size=15;" parent="1" vertex="1">
          <mxGeometry x="810" y="227.5" width="80" height="90" as="geometry" />
        </mxCell>
        <mxCell id="YsobYWs1oGZnOzWhEl8R-8" value="" style="endArrow=classic;startArrow=none;html=1;rounded=0;exitX=0.5;exitY=0.5;exitDx=0;exitDy=0;exitPerimeter=0;entryX=0;entryY=0.5;entryDx=0;entryDy=0;startFill=0;" parent="1" source="YsobYWs1oGZnOzWhEl8R-1" target="YsobYWs1oGZnOzWhEl8R-2" edge="1">
          <mxGeometry width="50" height="50" relative="1" as="geometry">
            <mxPoint x="300" y="315" as="sourcePoint" />
            <mxPoint x="350" y="265" as="targetPoint" />
          </mxGeometry>
        </mxCell>
        <mxCell id="YsobYWs1oGZnOzWhEl8R-9" value="" style="endArrow=classic;startArrow=classic;html=1;rounded=0;exitX=1;exitY=0.5;exitDx=0;exitDy=0;entryX=0;entryY=0.5;entryDx=0;entryDy=0;entryPerimeter=0;" parent="1" source="YsobYWs1oGZnOzWhEl8R-16" target="YsobYWs1oGZnOzWhEl8R-5" edge="1">
          <mxGeometry width="50" height="50" relative="1" as="geometry">
            <mxPoint x="720" y="385" as="sourcePoint" />
            <mxPoint x="770" y="335" as="targetPoint" />
          </mxGeometry>
        </mxCell>
        <mxCell id="YsobYWs1oGZnOzWhEl8R-11" value="lee e interpreta&lt;br&gt;el resultado" style="rounded=0;whiteSpace=wrap;html=1;" parent="1" vertex="1">
          <mxGeometry x="410" y="335" width="120" height="60" as="geometry" />
        </mxCell>
        <mxCell id="YsobYWs1oGZnOzWhEl8R-12" value="" style="endArrow=none;startArrow=classic;html=1;rounded=0;exitX=0.5;exitY=0.5;exitDx=0;exitDy=0;exitPerimeter=0;entryX=0;entryY=0.5;entryDx=0;entryDy=0;startFill=0;" parent="1" source="YsobYWs1oGZnOzWhEl8R-1" target="YsobYWs1oGZnOzWhEl8R-11" edge="1">
          <mxGeometry width="50" height="50" relative="1" as="geometry">
            <mxPoint x="720" y="385" as="sourcePoint" />
            <mxPoint x="770" y="335" as="targetPoint" />
          </mxGeometry>
        </mxCell>
        <mxCell id="YsobYWs1oGZnOzWhEl8R-16" value="Programa" style="swimlane;whiteSpace=wrap;html=1;" parent="1" vertex="1">
          <mxGeometry x="545" y="120" width="175" height="305" as="geometry" />
        </mxCell>
        <mxCell id="YsobYWs1oGZnOzWhEl8R-10" value="actualiza la visualización" style="rounded=0;whiteSpace=wrap;html=1;" parent="YsobYWs1oGZnOzWhEl8R-16" vertex="1">
          <mxGeometry x="25" y="190" width="120" height="60" as="geometry" />
        </mxCell>
        <mxCell id="YsobYWs1oGZnOzWhEl8R-3" value="responde al evento&lt;br&gt;de clic" style="rounded=0;whiteSpace=wrap;html=1;" parent="YsobYWs1oGZnOzWhEl8R-16" vertex="1">
          <mxGeometry x="25" y="60" width="120" height="60" as="geometry" />
        </mxCell>
        <mxCell id="oIzEX3MPd6ZQxvIO18P5-2" value="Tests" style="swimlane;horizontal=0;whiteSpace=wrap;html=1;" parent="1" vertex="1">
          <mxGeometry x="450" y="485" width="120" height="135" as="geometry" />
        </mxCell>
        <mxCell id="wtq1aVt6GUqfjSalOk2s-14" value="usuario" style="shape=umlActor;verticalLabelPosition=bottom;verticalAlign=top;html=1;outlineConnect=0;" parent="oIzEX3MPd6ZQxvIO18P5-2" vertex="1">
          <mxGeometry x="50" y="25" width="30" height="60" as="geometry" />
        </mxCell>
        <mxCell id="oIzEX3MPd6ZQxvIO18P5-6" value="" style="shape=flexArrow;endArrow=classic;startArrow=classic;html=1;rounded=0;fillColor=#fff2cc;strokeColor=#d6b656;endSize=3;startSize=3;opacity=70;" parent="1" edge="1">
          <mxGeometry width="100" height="100" relative="1" as="geometry">
            <mxPoint x="520" y="475" as="sourcePoint" />
            <mxPoint x="540" y="205" as="targetPoint" />
          </mxGeometry>
        </mxCell>
        <mxCell id="oIzEX3MPd6ZQxvIO18P5-7" value="" style="shape=flexArrow;endArrow=classic;startArrow=classic;html=1;rounded=0;fillColor=#fff2cc;strokeColor=#d6b656;endSize=3;startSize=3;opacity=70;" parent="1" edge="1">
          <mxGeometry width="100" height="100" relative="1" as="geometry">
            <mxPoint x="530" y="475" as="sourcePoint" />
            <mxPoint x="540" y="350" as="targetPoint" />
          </mxGeometry>
        </mxCell>
        <mxCell id="oIzEX3MPd6ZQxvIO18P5-10" value="usuario" style="shape=umlActor;verticalLabelPosition=bottom;verticalAlign=top;html=1;outlineConnect=0;" parent="1" vertex="1">
          <mxGeometry x="1340" y="245" width="30" height="60" as="geometry" />
        </mxCell>
        <mxCell id="oIzEX3MPd6ZQxvIO18P5-11" value="teclea información&lt;br&gt;y&lt;br&gt;clica sobre botón de &quot;hacer algo&quot;" style="rounded=0;whiteSpace=wrap;html=1;" parent="1" vertex="1">
          <mxGeometry x="1470" y="165" width="120" height="60" as="geometry" />
        </mxCell>
        <mxCell id="oIzEX3MPd6ZQxvIO18P5-12" value="responde al evento&lt;br&gt;de clic y lanza las acciones necesarias&amp;nbsp;para &quot;hacer algo&quot;" style="rounded=0;whiteSpace=wrap;html=1;" parent="1" vertex="1">
          <mxGeometry x="1630" y="165" width="120" height="85" as="geometry" />
        </mxCell>
        <mxCell id="oIzEX3MPd6ZQxvIO18P5-13" value="realiza las operaciones &lt;br&gt;y maneja los datos" style="rounded=0;whiteSpace=wrap;html=1;" parent="1" vertex="1">
          <mxGeometry x="1863.5" y="242.5" width="120" height="67.5" as="geometry" />
        </mxCell>
        <mxCell id="oIzEX3MPd6ZQxvIO18P5-14" value="persistencia de datos" style="shape=cylinder3;whiteSpace=wrap;html=1;boundedLbl=1;backgroundOutline=1;size=15;" parent="1" vertex="1">
          <mxGeometry x="2080" y="245" width="80" height="90" as="geometry" />
        </mxCell>
        <mxCell id="oIzEX3MPd6ZQxvIO18P5-15" value="" style="endArrow=classic;startArrow=none;html=1;rounded=0;exitX=0.5;exitY=0.5;exitDx=0;exitDy=0;exitPerimeter=0;entryX=0;entryY=0.5;entryDx=0;entryDy=0;startFill=0;" parent="1" source="oIzEX3MPd6ZQxvIO18P5-10" target="oIzEX3MPd6ZQxvIO18P5-11" edge="1">
          <mxGeometry width="50" height="50" relative="1" as="geometry">
            <mxPoint x="1360" y="315" as="sourcePoint" />
            <mxPoint x="1410" y="265" as="targetPoint" />
          </mxGeometry>
        </mxCell>
        <mxCell id="oIzEX3MPd6ZQxvIO18P5-16" value="" style="endArrow=classic;startArrow=classic;html=1;rounded=0;entryX=0;entryY=0.5;entryDx=0;entryDy=0;entryPerimeter=0;" parent="1" target="oIzEX3MPd6ZQxvIO18P5-14" edge="1">
          <mxGeometry width="50" height="50" relative="1" as="geometry">
            <mxPoint x="2020" y="290" as="sourcePoint" />
            <mxPoint x="2070" y="290" as="targetPoint" />
          </mxGeometry>
        </mxCell>
        <mxCell id="oIzEX3MPd6ZQxvIO18P5-17" value="recibe el resultado de las acciones y actualiza la visualización" style="rounded=0;whiteSpace=wrap;html=1;" parent="1" vertex="1">
          <mxGeometry x="1640" y="310" width="110" height="85" as="geometry" />
        </mxCell>
        <mxCell id="oIzEX3MPd6ZQxvIO18P5-18" value="lee e interpreta&lt;br&gt;el resultado" style="rounded=0;whiteSpace=wrap;html=1;" parent="1" vertex="1">
          <mxGeometry x="1470" y="335" width="120" height="60" as="geometry" />
        </mxCell>
        <mxCell id="oIzEX3MPd6ZQxvIO18P5-19" value="" style="endArrow=none;startArrow=classic;html=1;rounded=0;exitX=0.5;exitY=0.5;exitDx=0;exitDy=0;exitPerimeter=0;entryX=0;entryY=0.5;entryDx=0;entryDy=0;startFill=0;" parent="1" source="oIzEX3MPd6ZQxvIO18P5-10" target="oIzEX3MPd6ZQxvIO18P5-18" edge="1">
          <mxGeometry width="50" height="50" relative="1" as="geometry">
            <mxPoint x="1780" y="385" as="sourcePoint" />
            <mxPoint x="1830" y="335" as="targetPoint" />
          </mxGeometry>
        </mxCell>
        <mxCell id="oIzEX3MPd6ZQxvIO18P5-20" value="Interface" style="swimlane;whiteSpace=wrap;html=1;" parent="1" vertex="1">
          <mxGeometry x="1605" y="120" width="175" height="302.5" as="geometry" />
        </mxCell>
        <mxCell id="oIzEX3MPd6ZQxvIO18P5-21" value="Tests" style="swimlane;horizontal=0;whiteSpace=wrap;html=1;" parent="1" vertex="1">
          <mxGeometry x="1800" y="470" width="170" height="140" as="geometry" />
        </mxCell>
        <mxCell id="oIzEX3MPd6ZQxvIO18P5-23" value="" style="shape=flexArrow;endArrow=classic;startArrow=classic;html=1;rounded=0;fillColor=#fff2cc;strokeColor=#d6b656;endSize=3;startSize=3;opacity=70;" parent="1" edge="1">
          <mxGeometry width="100" height="100" relative="1" as="geometry">
            <mxPoint x="1846" y="460" as="sourcePoint" />
            <mxPoint x="1846" y="265" as="targetPoint" />
          </mxGeometry>
        </mxCell>
        <mxCell id="oIzEX3MPd6ZQxvIO18P5-24" value="Lógica" style="swimlane;whiteSpace=wrap;html=1;" parent="1" vertex="1">
          <mxGeometry x="1836" y="192.5" width="184" height="142.5" as="geometry" />
        </mxCell>
        <mxCell id="wtq1aVt6GUqfjSalOk2s-7" value="" style="rounded=1;whiteSpace=wrap;html=1;fillColor=#fa6800;fontColor=#000000;strokeColor=none;fillStyle=auto;opacity=50;" parent="oIzEX3MPd6ZQxvIO18P5-24" vertex="1">
          <mxGeometry x="174" y="70" width="20" height="42.5" as="geometry" />
        </mxCell>
        <mxCell id="oIzEX3MPd6ZQxvIO18P5-25" value="" style="endArrow=classic;startArrow=none;html=1;rounded=0;exitX=1;exitY=0.5;exitDx=0;exitDy=0;startFill=0;entryX=0;entryY=0.25;entryDx=0;entryDy=0;" parent="1" source="oIzEX3MPd6ZQxvIO18P5-12" target="oIzEX3MPd6ZQxvIO18P5-13" edge="1">
          <mxGeometry width="50" height="50" relative="1" as="geometry">
            <mxPoint x="1365" y="285.5" as="sourcePoint" />
            <mxPoint x="1480" y="205.5" as="targetPoint" />
          </mxGeometry>
        </mxCell>
        <mxCell id="oIzEX3MPd6ZQxvIO18P5-26" value="" style="endArrow=classic;startArrow=none;html=1;rounded=0;entryX=1;entryY=0.5;entryDx=0;entryDy=0;startFill=0;exitX=-0.008;exitY=0.642;exitDx=0;exitDy=0;exitPerimeter=0;" parent="1" source="oIzEX3MPd6ZQxvIO18P5-13" target="oIzEX3MPd6ZQxvIO18P5-17" edge="1">
          <mxGeometry width="50" height="50" relative="1" as="geometry">
            <mxPoint x="1840" y="282.5" as="sourcePoint" />
            <mxPoint x="1490" y="215.5" as="targetPoint" />
          </mxGeometry>
        </mxCell>
        <mxCell id="oIzEX3MPd6ZQxvIO18P5-27" value="usuario" style="shape=umlActor;verticalLabelPosition=bottom;verticalAlign=top;html=1;outlineConnect=0;" parent="1" vertex="1">
          <mxGeometry x="2400" y="245" width="30" height="60" as="geometry" />
        </mxCell>
        <mxCell id="oIzEX3MPd6ZQxvIO18P5-28" value="teclea información&lt;br&gt;y&lt;br&gt;clica sobre botón de &quot;hacer algo&quot;" style="rounded=0;whiteSpace=wrap;html=1;" parent="1" vertex="1">
          <mxGeometry x="2530" y="165" width="120" height="60" as="geometry" />
        </mxCell>
        <mxCell id="oIzEX3MPd6ZQxvIO18P5-31" value="persistencia de datos" style="shape=cylinder3;whiteSpace=wrap;html=1;boundedLbl=1;backgroundOutline=1;size=15;" parent="1" vertex="1">
          <mxGeometry x="3380" y="290" width="80" height="90" as="geometry" />
        </mxCell>
        <mxCell id="oIzEX3MPd6ZQxvIO18P5-32" value="" style="endArrow=classic;startArrow=none;html=1;rounded=0;exitX=0.5;exitY=0.5;exitDx=0;exitDy=0;exitPerimeter=0;entryX=0;entryY=0.5;entryDx=0;entryDy=0;startFill=0;" parent="1" source="oIzEX3MPd6ZQxvIO18P5-27" target="oIzEX3MPd6ZQxvIO18P5-28" edge="1">
          <mxGeometry width="50" height="50" relative="1" as="geometry">
            <mxPoint x="2420" y="315" as="sourcePoint" />
            <mxPoint x="2470" y="265" as="targetPoint" />
          </mxGeometry>
        </mxCell>
        <mxCell id="oIzEX3MPd6ZQxvIO18P5-33" value="" style="endArrow=classic;startArrow=classic;html=1;rounded=0;exitX=1;exitY=0.5;exitDx=0;exitDy=0;entryX=0;entryY=0.5;entryDx=0;entryDy=0;entryPerimeter=0;" parent="1" source="oIzEX3MPd6ZQxvIO18P5-43" target="oIzEX3MPd6ZQxvIO18P5-31" edge="1">
          <mxGeometry width="50" height="50" relative="1" as="geometry">
            <mxPoint x="2840" y="385" as="sourcePoint" />
            <mxPoint x="2890" y="335" as="targetPoint" />
          </mxGeometry>
        </mxCell>
        <mxCell id="oIzEX3MPd6ZQxvIO18P5-34" value="observa los datos y actualiza la visualización cuando estos cambian" style="rounded=0;whiteSpace=wrap;html=1;" parent="1" vertex="1">
          <mxGeometry x="2690" y="300" width="120" height="95" as="geometry" />
        </mxCell>
        <mxCell id="oIzEX3MPd6ZQxvIO18P5-35" value="lee e interpreta&lt;br&gt;el resultado" style="rounded=0;whiteSpace=wrap;html=1;" parent="1" vertex="1">
          <mxGeometry x="2530" y="335" width="120" height="60" as="geometry" />
        </mxCell>
        <mxCell id="oIzEX3MPd6ZQxvIO18P5-36" value="" style="endArrow=none;startArrow=classic;html=1;rounded=0;exitX=0.5;exitY=0.5;exitDx=0;exitDy=0;exitPerimeter=0;entryX=0;entryY=0.5;entryDx=0;entryDy=0;startFill=0;" parent="1" source="oIzEX3MPd6ZQxvIO18P5-27" target="oIzEX3MPd6ZQxvIO18P5-35" edge="1">
          <mxGeometry width="50" height="50" relative="1" as="geometry">
            <mxPoint x="2840" y="385" as="sourcePoint" />
            <mxPoint x="2890" y="335" as="targetPoint" />
          </mxGeometry>
        </mxCell>
        <mxCell id="oIzEX3MPd6ZQxvIO18P5-37" value="Vista" style="swimlane;whiteSpace=wrap;html=1;startSize=23;" parent="1" vertex="1">
          <mxGeometry x="2665" y="120" width="175" height="302.5" as="geometry" />
        </mxCell>
        <mxCell id="oIzEX3MPd6ZQxvIO18P5-45" value="reacciona al clic" style="rounded=0;whiteSpace=wrap;html=1;" parent="oIzEX3MPd6ZQxvIO18P5-37" vertex="1">
          <mxGeometry x="27.5" y="45" width="120" height="60" as="geometry" />
        </mxCell>
        <mxCell id="oIzEX3MPd6ZQxvIO18P5-38" value="Tests" style="swimlane;horizontal=0;whiteSpace=wrap;html=1;" parent="1" vertex="1">
          <mxGeometry x="2900" y="510" width="290" height="120" as="geometry" />
        </mxCell>
        <mxCell id="oIzEX3MPd6ZQxvIO18P5-39" value="" style="shape=flexArrow;endArrow=classic;startArrow=classic;html=1;rounded=0;fillColor=#fff2cc;strokeColor=#d6b656;endSize=3;startSize=3;opacity=70;" parent="1" edge="1">
          <mxGeometry width="100" height="100" relative="1" as="geometry">
            <mxPoint x="3040" y="490" as="sourcePoint" />
            <mxPoint x="3130" y="210" as="targetPoint" />
          </mxGeometry>
        </mxCell>
        <mxCell id="oIzEX3MPd6ZQxvIO18P5-40" value="Modelo" style="swimlane;whiteSpace=wrap;html=1;" parent="1" vertex="1">
          <mxGeometry x="3120" y="120" width="175" height="300" as="geometry" />
        </mxCell>
        <mxCell id="oIzEX3MPd6ZQxvIO18P5-43" value="maneja &lt;br&gt;los datos" style="rounded=0;whiteSpace=wrap;html=1;" parent="oIzEX3MPd6ZQxvIO18P5-40" vertex="1">
          <mxGeometry x="27.5" y="185" width="120" height="60" as="geometry" />
        </mxCell>
        <mxCell id="oIzEX3MPd6ZQxvIO18P5-30" value="realiza las operaciones&amp;nbsp;" style="rounded=0;whiteSpace=wrap;html=1;" parent="oIzEX3MPd6ZQxvIO18P5-40" vertex="1">
          <mxGeometry x="27.5" y="60" width="120" height="60" as="geometry" />
        </mxCell>
        <mxCell id="oIzEX3MPd6ZQxvIO18P5-50" value="" style="endArrow=classic;startArrow=classic;html=1;rounded=0;exitX=0.5;exitY=1;exitDx=0;exitDy=0;" parent="oIzEX3MPd6ZQxvIO18P5-40" source="oIzEX3MPd6ZQxvIO18P5-30" target="oIzEX3MPd6ZQxvIO18P5-43" edge="1">
          <mxGeometry width="50" height="50" relative="1" as="geometry">
            <mxPoint x="158" y="240" as="sourcePoint" />
            <mxPoint x="260" y="240" as="targetPoint" />
          </mxGeometry>
        </mxCell>
        <mxCell id="wtq1aVt6GUqfjSalOk2s-12" value="" style="rounded=1;whiteSpace=wrap;html=1;fillColor=#fa6800;fontColor=#000000;strokeColor=none;fillStyle=auto;opacity=50;" parent="oIzEX3MPd6ZQxvIO18P5-40" vertex="1">
          <mxGeometry x="40" y="135" width="100" height="35" as="geometry" />
        </mxCell>
        <mxCell id="oIzEX3MPd6ZQxvIO18P5-41" value="" style="endArrow=classic;startArrow=none;html=1;rounded=0;exitX=1;exitY=0.5;exitDx=0;exitDy=0;startFill=0;entryX=-0.012;entryY=0.4;entryDx=0;entryDy=0;entryPerimeter=0;" parent="1" source="oIzEX3MPd6ZQxvIO18P5-29" target="oIzEX3MPd6ZQxvIO18P5-30" edge="1">
          <mxGeometry width="50" height="50" relative="1" as="geometry">
            <mxPoint x="2425" y="285.5" as="sourcePoint" />
            <mxPoint x="2540" y="205.5" as="targetPoint" />
          </mxGeometry>
        </mxCell>
        <mxCell id="oIzEX3MPd6ZQxvIO18P5-42" value="" style="endArrow=classic;startArrow=none;html=1;rounded=0;entryX=1;entryY=0.25;entryDx=0;entryDy=0;startFill=0;exitX=-0.008;exitY=0.642;exitDx=0;exitDy=0;exitPerimeter=0;" parent="1" source="oIzEX3MPd6ZQxvIO18P5-30" target="oIzEX3MPd6ZQxvIO18P5-46" edge="1">
          <mxGeometry width="50" height="50" relative="1" as="geometry">
            <mxPoint x="2900" y="282.5" as="sourcePoint" />
            <mxPoint x="2550" y="215.5" as="targetPoint" />
          </mxGeometry>
        </mxCell>
        <mxCell id="oIzEX3MPd6ZQxvIO18P5-44" value="Controlador" style="swimlane;whiteSpace=wrap;html=1;startSize=23;" parent="1" vertex="1">
          <mxGeometry x="2860" y="120" width="175" height="302.5" as="geometry" />
        </mxCell>
        <mxCell id="oIzEX3MPd6ZQxvIO18P5-29" value="lanza las acciones necesarias&amp;nbsp;para &quot;hacer algo&quot;" style="rounded=0;whiteSpace=wrap;html=1;" parent="oIzEX3MPd6ZQxvIO18P5-44" vertex="1">
          <mxGeometry x="27.5" y="60" width="120" height="60" as="geometry" />
        </mxCell>
        <mxCell id="oIzEX3MPd6ZQxvIO18P5-46" value="recibe las respuestas a las acciones y notifica a la vista" style="rounded=0;whiteSpace=wrap;html=1;" parent="oIzEX3MPd6ZQxvIO18P5-44" vertex="1">
          <mxGeometry x="27.5" y="160" width="120" height="60" as="geometry" />
        </mxCell>
        <mxCell id="oIzEX3MPd6ZQxvIO18P5-47" value="" style="endArrow=classic;startArrow=none;html=1;rounded=0;exitX=1;exitY=0.5;exitDx=0;exitDy=0;startFill=0;entryX=0;entryY=0.5;entryDx=0;entryDy=0;" parent="1" source="oIzEX3MPd6ZQxvIO18P5-45" target="oIzEX3MPd6ZQxvIO18P5-29" edge="1">
          <mxGeometry width="50" height="50" relative="1" as="geometry">
            <mxPoint x="3018" y="205" as="sourcePoint" />
            <mxPoint x="2890" y="195" as="targetPoint" />
          </mxGeometry>
        </mxCell>
        <mxCell id="oIzEX3MPd6ZQxvIO18P5-48" value="" style="endArrow=classic;startArrow=none;html=1;rounded=0;entryX=1;entryY=0.75;entryDx=0;entryDy=0;startFill=0;exitX=0;exitY=0.75;exitDx=0;exitDy=0;endFill=1;" parent="1" source="oIzEX3MPd6ZQxvIO18P5-43" target="oIzEX3MPd6ZQxvIO18P5-34" edge="1">
          <mxGeometry width="50" height="50" relative="1" as="geometry">
            <mxPoint x="3157" y="234" as="sourcePoint" />
            <mxPoint x="3018" y="340" as="targetPoint" />
          </mxGeometry>
        </mxCell>
        <mxCell id="oIzEX3MPd6ZQxvIO18P5-49" value="" style="endArrow=classic;startArrow=none;html=1;rounded=0;entryX=1;entryY=0.5;entryDx=0;entryDy=0;startFill=0;exitX=0;exitY=0.75;exitDx=0;exitDy=0;" parent="1" source="oIzEX3MPd6ZQxvIO18P5-46" target="oIzEX3MPd6ZQxvIO18P5-34" edge="1">
          <mxGeometry width="50" height="50" relative="1" as="geometry">
            <mxPoint x="3167" y="244" as="sourcePoint" />
            <mxPoint x="3028" y="350" as="targetPoint" />
          </mxGeometry>
        </mxCell>
        <mxCell id="oIzEX3MPd6ZQxvIO18P5-51" value="" style="endArrow=classic;startArrow=none;html=1;rounded=0;entryX=1;entryY=0.75;entryDx=0;entryDy=0;startFill=0;exitX=0;exitY=0.5;exitDx=0;exitDy=0;" parent="1" source="oIzEX3MPd6ZQxvIO18P5-43" target="oIzEX3MPd6ZQxvIO18P5-46" edge="1">
          <mxGeometry width="50" height="50" relative="1" as="geometry">
            <mxPoint x="3157" y="259" as="sourcePoint" />
            <mxPoint x="3018" y="340" as="targetPoint" />
          </mxGeometry>
        </mxCell>
        <mxCell id="oIzEX3MPd6ZQxvIO18P5-52" value="" style="shape=flexArrow;endArrow=classic;startArrow=classic;html=1;rounded=0;fillColor=#fff2cc;strokeColor=#d6b656;endSize=3;startSize=3;opacity=70;" parent="1" edge="1">
          <mxGeometry width="100" height="100" relative="1" as="geometry">
            <mxPoint x="3090" y="490" as="sourcePoint" />
            <mxPoint x="3190" y="270" as="targetPoint" />
          </mxGeometry>
        </mxCell>
        <mxCell id="oIzEX3MPd6ZQxvIO18P5-53" value="" style="shape=flexArrow;endArrow=classic;startArrow=classic;html=1;rounded=0;fillColor=#fff2cc;strokeColor=#d6b656;endSize=3;startSize=3;opacity=70;" parent="1" edge="1">
          <mxGeometry width="100" height="100" relative="1" as="geometry">
            <mxPoint x="2990" y="490" as="sourcePoint" />
            <mxPoint x="2880" y="250" as="targetPoint" />
          </mxGeometry>
        </mxCell>
        <mxCell id="2-Llc5LlxPBYwa-gH1LH-1" value="&lt;h1 style=&quot;margin-top: 0px;&quot;&gt;Todo en un bloque&lt;/h1&gt;&lt;p&gt;Se utiliza en pequeñas utilidades rápidas. Lo de pequeñas significa que sean a una escala &quot;comprensible por humanos&quot;, (ya que los testeos habrán de ser prácticamente manuales).&lt;/p&gt;&lt;p&gt;Y lo de rápida significa que no van a crecer ni evolucionar.&amp;nbsp; &amp;nbsp; &amp;nbsp; &amp;nbsp; (Cuando lo haga... tendremos que plantearnos refactorizarla para que pase a tener una estructura diferente... ) &amp;gt;&amp;gt;&amp;gt;&lt;/p&gt;" style="text;html=1;whiteSpace=wrap;overflow=hidden;rounded=0;" parent="1" vertex="1">
          <mxGeometry x="80" y="680" width="1000" height="110" as="geometry" />
        </mxCell>
        <mxCell id="2-Llc5LlxPBYwa-gH1LH-2" value="&lt;h1 style=&quot;margin-top: 0px;&quot;&gt;Separando interface de implementación&lt;/h1&gt;&lt;p&gt;Es el mínimo que deberian tener todos los programas.&amp;nbsp; &amp;nbsp; &amp;nbsp; &amp;nbsp; &amp;nbsp; &amp;nbsp; &amp;nbsp;E&lt;span style=&quot;background-color: transparent; color: light-dark(rgb(0, 0, 0), rgb(255, 255, 255));&quot;&gt;mpezar siempre a programar por la lógica, probandola con los tests; la persistencia y el interfaz van después.&lt;/span&gt;&lt;/p&gt;&lt;p&gt;De esta forma nos podemos centrar en la lógica&amp;nbsp;&lt;span style=&quot;background-color: transparent; color: light-dark(rgb(0, 0, 0), rgb(255, 255, 255));&quot;&gt;(lo que el programa hace)&lt;/span&gt;&lt;span style=&quot;background-color: transparent; color: light-dark(rgb(0, 0, 0), rgb(255, 255, 255));&quot;&gt;&amp;nbsp;&lt;/span&gt;&lt;span style=&quot;background-color: transparent; color: light-dark(rgb(0, 0, 0), rgb(255, 255, 255));&quot;&gt;y en dejar bien claros los puntos de interacción de esa lógica con el mundo exterior&amp;nbsp;&lt;/span&gt;&lt;span style=&quot;background-color: transparent; color: light-dark(rgb(0, 0, 0), rgb(255, 255, 255));&quot;&gt;(cómo se utilizará)&lt;/span&gt;&lt;span style=&quot;background-color: transparent; color: light-dark(rgb(0, 0, 0), rgb(255, 255, 255));&quot;&gt;.&amp;nbsp;&lt;/span&gt;&lt;/p&gt;&lt;p&gt;Así se separan las partes importantes (lo que el programa hace) de las partes accesorias (los médios tecnológicos que utiliza para hacerlo). Permitiendo que cada parte evolucione de forma (más o menos) independiente.&amp;nbsp; &amp;nbsp; &amp;nbsp; &amp;nbsp; &amp;nbsp; &amp;nbsp;Además, esta separación facilita escribir tests unitarios en el propio código; para automatizar las comprobaciones de la lógica.&lt;/p&gt;" style="text;html=1;whiteSpace=wrap;overflow=hidden;rounded=0;" parent="1" vertex="1">
          <mxGeometry x="1250" y="670" width="980" height="140" as="geometry" />
        </mxCell>
        <mxCell id="2-Llc5LlxPBYwa-gH1LH-4" value="&lt;h1 style=&quot;margin-top: 0px;&quot;&gt;Separando en capas&lt;/h1&gt;&lt;p&gt;Todo programa (más o menos) grande se ha de organizar en torno a esta idea. Para facilitar su evolución, (algo que será constante a lo largo de toda su vida).&lt;/p&gt;&lt;p&gt;La separación puede adoptar diversas formas, desde el clásico MVC hasta el actual Port&amp;amp;Adapters (Hexagonal).&amp;nbsp;&lt;/p&gt;&lt;p&gt;Pero en todas ellas el objetivo es claro: hacer aflorar expresamente las dependencias entre las distintas partes del programa;&lt;br&gt;&lt;span style=&quot;background-color: transparent; color: light-dark(rgb(0, 0, 0), rgb(255, 255, 255));&quot;&gt;para vigilar, cuidar y mimar esas dependencias,&amp;nbsp; permitiendo así evolucionar cada parte de forma (más o menos) independiente.&lt;/span&gt;&lt;/p&gt;" style="text;html=1;whiteSpace=wrap;overflow=hidden;rounded=0;" parent="1" vertex="1">
          <mxGeometry x="2420" y="670" width="1030" height="140" as="geometry" />
        </mxCell>
        <mxCell id="wtq1aVt6GUqfjSalOk2s-3" value="" style="rounded=1;whiteSpace=wrap;html=1;fillColor=#fa6800;fontColor=#000000;strokeColor=none;fillStyle=auto;opacity=20;" parent="1" vertex="1">
          <mxGeometry x="710" y="250" width="20" height="50" as="geometry" />
        </mxCell>
        <mxCell id="wtq1aVt6GUqfjSalOk2s-6" value="" style="rounded=1;whiteSpace=wrap;html=1;fillColor=#fa6800;fontColor=#000000;strokeColor=none;fillStyle=auto;opacity=50;" parent="1" vertex="1">
          <mxGeometry x="1790" y="170" width="30" height="190" as="geometry" />
        </mxCell>
        <mxCell id="wtq1aVt6GUqfjSalOk2s-10" value="" style="rounded=1;whiteSpace=wrap;html=1;fillColor=#fa6800;fontColor=#000000;strokeColor=none;fillStyle=auto;opacity=50;" parent="1" vertex="1">
          <mxGeometry x="2830" y="160" width="40" height="230" as="geometry" />
        </mxCell>
        <mxCell id="wtq1aVt6GUqfjSalOk2s-11" value="" style="rounded=1;whiteSpace=wrap;html=1;fillColor=#fa6800;fontColor=#000000;strokeColor=none;fillStyle=auto;opacity=50;" parent="1" vertex="1">
          <mxGeometry x="3060" y="140" width="40" height="270" as="geometry" />
        </mxCell>
        <mxCell id="wtq1aVt6GUqfjSalOk2s-13" value="" style="rounded=1;whiteSpace=wrap;html=1;fillColor=#fa6800;fontColor=#000000;strokeColor=none;fillStyle=auto;opacity=50;" parent="1" vertex="1">
          <mxGeometry x="3290" y="290" width="20" height="90" as="geometry" />
        </mxCell>
      </root>
    </mxGraphModel>
  </diagram>
</mxfile>
